<svg xmlns="http://www.w3.org/2000/svg" xmlns:xlink="http://www.w3.org/1999/xlink" width="262.985" height="64.329" viewBox="0 0 262.98532 64.329331"><defs><clipPath id="d"><path d="M122.183 145.124h7.114V97.64h-7.114v47.484z"/></clipPath><linearGradient x2="1" id="a" gradientUnits="userSpaceOnUse" gradientTransform="matrix(0 -47.483 -47.483 0 125.74 145.124)"><stop offset="0" stop-color="#e55a43"/><stop offset=".696" stop-color="#e55a43"/><stop offset="1" stop-color="#a83840"/></linearGradient><clipPath id="f"><path d="M110.714 126.646h7.115V97.64h-7.118v29.006z"/></clipPath><linearGradient x2="1" id="b" gradientUnits="userSpaceOnUse" gradientTransform="matrix(0 -29.006 -29.006 0 114.271 126.646)"><stop offset="0" stop-color="#60c1e5"/><stop offset=".696" stop-color="#60c1e5"/><stop offset="1" stop-color="#4b64a4"/></linearGradient><clipPath id="h"><path d="M133.65 137.173h7.115V97.64h-7.114v39.533z"/></clipPath><linearGradient x2="1" id="c" gradientUnits="userSpaceOnUse" gradientTransform="matrix(0 -39.533 -39.533 0 137.208 137.173)"><stop offset="0" stop-color="#f8b009"/><stop offset=".696" stop-color="#f8b009"/><stop offset="1" stop-color="#c36729"/></linearGradient><clipPath id="j"><path d="M158.632 103.912h15.212V97.64h-25.08v5.943l14.884 16.958h-13.85v6.11h23.5v-6.27l-14.666-16.466z"/></clipPath><linearGradient x2="1" gradientUnits="userSpaceOnUse" gradientTransform="matrix(0 -29.008 -29.008 0 161.303 126.648)"><stop offset="0" stop-color="#585e82"/><stop offset=".159" stop-color="#585e82"/><stop offset="1" stop-color="#2c2c23"/></linearGradient><linearGradient x2="1" gradientUnits="userSpaceOnUse" gradientTransform="matrix(0 -30.535 -30.535 0 191.201 127.412)"><stop offset="0" stop-color="#585e82"/><stop offset=".159" stop-color="#585e82"/><stop offset="1" stop-color="#2c2c23"/></linearGradient><linearGradient x2="1" gradientUnits="userSpaceOnUse" gradientTransform="matrix(0 -39.531 -39.531 0 213.232 137.171)"><stop offset="0" stop-color="#585e82"/><stop offset=".497" stop-color="#585e82"/><stop offset="1" stop-color="#2c2c23"/></linearGradient><linearGradient x2="1" gradientUnits="userSpaceOnUse" gradientTransform="matrix(0 -29.771 -29.771 0 234.123 127.412)"><stop offset="0" stop-color="#585e82"/><stop offset=".159" stop-color="#585e82"/><stop offset="1" stop-color="#2c2c23"/></linearGradient><linearGradient x2="1" gradientUnits="userSpaceOnUse" gradientTransform="matrix(0 -30.535 -30.535 0 263.348 127.412)"><stop offset="0" stop-color="#585e82"/><stop offset=".159" stop-color="#585e82"/><stop offset="1" stop-color="#2c2c23"/></linearGradient><linearGradient x2="1" gradientUnits="userSpaceOnUse" gradientTransform="matrix(0 -39.914 -39.914 0 293.679 136.791)"><stop offset="0" stop-color="#585e82"/><stop offset=".159" stop-color="#585e82"/><stop offset="1" stop-color="#2c2c23"/></linearGradient><linearGradient x2="1" id="e" xlink:href="#a" gradientUnits="userSpaceOnUse" gradientTransform="matrix(0 -47.483 -47.483 0 125.74 145.124)"/><linearGradient x2="1" id="g" xlink:href="#b" gradientUnits="userSpaceOnUse" gradientTransform="matrix(0 -29.006 -29.006 0 114.271 126.646)"/><linearGradient x2="1" id="i" xlink:href="#c" gradientUnits="userSpaceOnUse" gradientTransform="matrix(0 -39.533 -39.533 0 137.208 137.173)"/></defs><g clip-path="url(#d)" transform="matrix(1.333 0 0 -1.333 -147.619 193.499)"><path d="M122.183 145.124h7.114V97.64h-7.114v47.484z" fill="url(#e)"/></g><g clip-path="url(#f)" transform="matrix(1.333 0 0 -1.333 -147.619 193.499)"><path d="M110.714 126.646h7.115V97.64h-7.118v29.006z" fill="url(#g)"/></g><g clip-path="url(#h)" transform="matrix(1.333 0 0 -1.333 -147.619 193.499)"><path d="M133.65 137.173h7.115V97.64h-7.114v39.533z" fill="url(#i)"/></g><g clip-path="url(#j)" transform="matrix(1.333 0 0 -1.333 -147.619 193.499)" fill="#fff"><path d="M158.632 103.912h15.212V97.64h-25.08v5.943l14.884 16.958h-13.85v6.11h23.5v-6.27l-14.666-16.466z"/></g><path d="M87.54 43.973c0 13.958 9.38 20.356 19.776 20.356 10.396 0 19.775-6.4 19.775-20.36 0-13.956-9.376-20.355-19.772-20.355-10.395 0-19.775 6.4-19.775 20.356m10.47 0c0-4.94 1.455-11.777 9.306-11.777 7.85 0 9.304 6.836 9.304 11.778 0 4.944-1.452 11.777-9.304 11.777-7.85 0-9.306-6.834-9.306-11.777M131.6 20.055h10.18v-9.45H131.6v9.45zm0 43.257h10.18V24.635H131.6v38.677zm25.348-33.008h-.145v-5.67h-9.743v38.678h10.18V41.137c0-5.888 3.488-8.942 7.996-8.942 6.47 0 6.616 4.8 6.616 7.636v23.484h10.177V36.557c0-8.506-5.89-12.94-13.45-12.94-7.345 0-10.25 4.362-11.634 6.687m28.21 12.87c0 15.922 8.36 21.155 19.264 21.155 6.615 0 14.323-3.056 17.012-12.36h-10.47c-.798 2.76-3.707 4.215-6.542 4.215-8.215 0-8.797-6.544-9.088-9.45h26.536v-1.818c0-17.668-10.54-21.303-18.175-21.303-16.938 0-18.538 14.903-18.538 19.556m18.393-11.193c3.27 0 7.27 1.887 7.852 8.14h-15.777c.582-5.09 3.126-8.14 7.925-8.14m48.78-20.865v18.54h-.145c-1.6-2.473-4.654-6.035-11.196-6.035-8.507 0-16.067 6.543-16.067 19.92 0 10.612 4.8 20.792 16.285 20.792 4.218 0 8.723-1.53 11.196-5.89h.15v4.87h10.437v-52.2H252.33zm-16.94 33.15c0-6.103 2.183-11.85 8.652-11.85 6.98 0 8.724 6.255 8.724 12.435 0 5.74-2.544 11.12-9.015 11.12-6.545 0-8.36-7.123-8.36-11.706" fill="#fff"/></svg>