<?xml version="1.0" encoding="UTF-8" standalone="no"?>
<svg
   xmlns:dc="http://purl.org/dc/elements/1.1/"
   xmlns:cc="http://creativecommons.org/ns#"
   xmlns:rdf="http://www.w3.org/1999/02/22-rdf-syntax-ns#"
   xmlns:svg="http://www.w3.org/2000/svg"
   xmlns="http://www.w3.org/2000/svg"
   xmlns:sodipodi="http://sodipodi.sourceforge.net/DTD/sodipodi-0.dtd"
   xmlns:inkscape="http://www.inkscape.org/namespaces/inkscape"
   viewBox="0 0 262.98532 64.329331"
   height="64.32933"
   width="262.98532"
   xml:space="preserve"
   version="1.1"
   id="svg2"
   inkscape:version="0.48.5 r10040"
   sodipodi:docname="zoined_logo_RGB_color.svg"><sodipodi:namedview
     pagecolor="#ffffff"
     bordercolor="#666666"
     borderopacity="1"
     objecttolerance="10"
     gridtolerance="10"
     guidetolerance="10"
     inkscape:pageopacity="0"
     inkscape:pageshadow="2"
     inkscape:window-width="640"
     inkscape:window-height="480"
     id="namedview3368"
     showgrid="false"
     fit-margin-top="0"
     fit-margin-left="0"
     fit-margin-right="0"
     fit-margin-bottom="0"
     inkscape:zoom="0.72193415"
     inkscape:cx="131.49267"
     inkscape:cy="32.16401"
     inkscape:window-x="286"
     inkscape:window-y="188"
     inkscape:window-maximized="0"
     inkscape:current-layer="svg2" /><metadata
     id="metadata8"><rdf:RDF><cc:Work
         rdf:about=""><dc:format>image/svg+xml</dc:format><dc:type
           rdf:resource="http://purl.org/dc/dcmitype/StillImage" /></cc:Work></rdf:RDF></metadata><defs
     id="defs6"><clipPath
       id="clipPath16"
       clipPathUnits="userSpaceOnUse"><path
         id="path18"
         d="m 122.183,145.124 7.114,0 0,-47.483 -7.114,0 0,47.483 z"
         inkscape:connector-curvature="0" /></clipPath><linearGradient
       id="linearGradient24"
       spreadMethod="pad"
       gradientTransform="matrix(0,-47.483398,-47.483398,0,125.73975,145.12354)"
       gradientUnits="userSpaceOnUse"
       y2="0"
       x2="1"
       y1="0"
       x1="0"><stop
         id="stop26"
         offset="0"
         style="stop-opacity:1;stop-color:#e55a43" /><stop
         id="stop28"
         offset="0.69599411"
         style="stop-opacity:1;stop-color:#e55a43" /><stop
         id="stop30"
         offset="1"
         style="stop-opacity:1;stop-color:#a83840" /></linearGradient><clipPath
       id="clipPath38"
       clipPathUnits="userSpaceOnUse"><path
         id="path40"
         d="m 110.714,126.646 7.115,0 0,-29.006 -7.115,0 0,29.006 z"
         inkscape:connector-curvature="0" /></clipPath><linearGradient
       id="linearGradient46"
       spreadMethod="pad"
       gradientTransform="matrix(0,-29.005859,-29.005859,0,114.27148,126.646)"
       gradientUnits="userSpaceOnUse"
       y2="0"
       x2="1"
       y1="0"
       x1="0"><stop
         id="stop48"
         offset="0"
         style="stop-opacity:1;stop-color:#60c1e5" /><stop
         id="stop50"
         offset="0.69599411"
         style="stop-opacity:1;stop-color:#60c1e5" /><stop
         id="stop52"
         offset="1"
         style="stop-opacity:1;stop-color:#4b64a4" /></linearGradient><clipPath
       id="clipPath60"
       clipPathUnits="userSpaceOnUse"><path
         id="path62"
         d="m 133.651,137.173 7.114,0 0,-39.533 -7.114,0 0,39.533 z"
         inkscape:connector-curvature="0" /></clipPath><linearGradient
       id="linearGradient68"
       spreadMethod="pad"
       gradientTransform="matrix(0,-39.533203,-39.533203,0,137.2085,137.17334)"
       gradientUnits="userSpaceOnUse"
       y2="0"
       x2="1"
       y1="0"
       x1="0"><stop
         id="stop70"
         offset="0"
         style="stop-opacity:1;stop-color:#f8b009" /><stop
         id="stop72"
         offset="0.69599411"
         style="stop-opacity:1;stop-color:#f8b009" /><stop
         id="stop74"
         offset="1"
         style="stop-opacity:1;stop-color:#c36729" /></linearGradient><clipPath
       id="clipPath82"
       clipPathUnits="userSpaceOnUse"><path
         id="path84"
         d="m 158.632,103.912 15.212,0 0,-6.272 -25.081,0 0,5.943 14.885,16.958 -13.85,0 0,6.107 23.501,0 0,-6.27 -14.667,-16.466 z"
         inkscape:connector-curvature="0" /></clipPath><linearGradient
       id="linearGradient90"
       spreadMethod="pad"
       gradientTransform="matrix(0,-29.007812,-29.007812,0,161.30322,126.64795)"
       gradientUnits="userSpaceOnUse"
       y2="0"
       x2="1"
       y1="0"
       x1="0"><stop
         id="stop92"
         offset="0"
         style="stop-opacity:1;stop-color:#585e82" /><stop
         id="stop94"
         offset="0.1590632"
         style="stop-opacity:1;stop-color:#585e82" /><stop
         id="stop96"
         offset="1"
         style="stop-opacity:1;stop-color:#2c2c23" /></linearGradient><linearGradient
       id="linearGradient112"
       spreadMethod="pad"
       gradientTransform="matrix(0,-30.535156,-30.535156,0,191.20068,127.41162)"
       gradientUnits="userSpaceOnUse"
       y2="0"
       x2="1"
       y1="0"
       x1="0"><stop
         id="stop114"
         offset="0"
         style="stop-opacity:1;stop-color:#585e82" /><stop
         id="stop116"
         offset="0.1590632"
         style="stop-opacity:1;stop-color:#585e82" /><stop
         id="stop118"
         offset="1"
         style="stop-opacity:1;stop-color:#2c2c23" /></linearGradient><linearGradient
       id="linearGradient134"
       spreadMethod="pad"
       gradientTransform="matrix(0,-39.53125,-39.53125,0,213.23242,137.17139)"
       gradientUnits="userSpaceOnUse"
       y2="0"
       x2="1"
       y1="0"
       x1="0"><stop
         id="stop136"
         offset="0"
         style="stop-opacity:1;stop-color:#585e82" /><stop
         id="stop138"
         offset="0.49675913"
         style="stop-opacity:1;stop-color:#585e82" /><stop
         id="stop140"
         offset="1"
         style="stop-opacity:1;stop-color:#2c2c23" /></linearGradient><linearGradient
       id="linearGradient156"
       spreadMethod="pad"
       gradientTransform="matrix(0,-29.771484,-29.771484,0,234.12305,127.41162)"
       gradientUnits="userSpaceOnUse"
       y2="0"
       x2="1"
       y1="0"
       x1="0"><stop
         id="stop158"
         offset="0"
         style="stop-opacity:1;stop-color:#585e82" /><stop
         id="stop160"
         offset="0.1590632"
         style="stop-opacity:1;stop-color:#585e82" /><stop
         id="stop162"
         offset="1"
         style="stop-opacity:1;stop-color:#2c2c23" /></linearGradient><linearGradient
       id="linearGradient178"
       spreadMethod="pad"
       gradientTransform="matrix(0,-30.535156,-30.535156,0,263.34766,127.41162)"
       gradientUnits="userSpaceOnUse"
       y2="0"
       x2="1"
       y1="0"
       x1="0"><stop
         id="stop180"
         offset="0"
         style="stop-opacity:1;stop-color:#585e82" /><stop
         id="stop182"
         offset="0.1590632"
         style="stop-opacity:1;stop-color:#585e82" /><stop
         id="stop184"
         offset="1"
         style="stop-opacity:1;stop-color:#2c2c23" /></linearGradient><linearGradient
       id="linearGradient200"
       spreadMethod="pad"
       gradientTransform="matrix(0,-39.914062,-39.914062,0,293.67871,136.79053)"
       gradientUnits="userSpaceOnUse"
       y2="0"
       x2="1"
       y1="0"
       x1="0"><stop
         id="stop202"
         offset="0"
         style="stop-opacity:1;stop-color:#585e82" /><stop
         id="stop204"
         offset="0.1590632"
         style="stop-opacity:1;stop-color:#585e82" /><stop
         id="stop206"
         offset="1"
         style="stop-opacity:1;stop-color:#2c2c23" /></linearGradient></defs><g
     transform="matrix(1.3333333,0,0,-1.3333333,-147.61866,193.49866)"
     id="g10"><g
       id="g12"><g
         clip-path="url(#clipPath16)"
         id="g14"><g
           id="g20"><g
             id="g22"><path
               id="path32"
               style="fill:url(#linearGradient24);stroke:none"
               d="m 122.183,145.124 7.114,0 0,-47.483 -7.114,0 0,47.483 z"
               inkscape:connector-curvature="0" /></g></g></g></g><g
       id="g34"><g
         clip-path="url(#clipPath38)"
         id="g36"><g
           id="g42"><g
             id="g44"><path
               id="path54"
               style="fill:url(#linearGradient46);stroke:none"
               d="m 110.714,126.646 7.115,0 0,-29.006 -7.115,0 0,29.006 z"
               inkscape:connector-curvature="0" /></g></g></g></g><g
       id="g56"><g
         clip-path="url(#clipPath60)"
         id="g58"><g
           id="g64"><g
             id="g66"><path
               id="path76"
               style="fill:url(#linearGradient68);stroke:none"
               d="m 133.651,137.173 7.114,0 0,-39.533 -7.114,0 0,39.533 z"
               inkscape:connector-curvature="0" /></g></g></g></g><g
       id="g78"><g
         clip-path="url(#clipPath82)"
         id="g80"><g
           id="g86"><g
             id="g88"><path
               id="path98"
               style="fill:url(#linearGradient90);stroke:none"
               d="m 158.632,103.912 15.212,0 0,-6.272 -25.081,0 0,5.943 14.885,16.958 -13.85,0 0,6.107 23.501,0 0,-6.27 -14.667,-16.466 z"
               inkscape:connector-curvature="0" /></g></g></g></g><g
       id="g100"><g
         id="g102"><g
           id="g108"><g
             id="g110"><path
               id="path120"
               style="fill:url(#linearGradient112);stroke:none"
               d="m 176.37,112.144 c 0,-10.468 7.035,-15.267 14.831,-15.267 l 0,0 c 7.797,0 14.831,4.799 14.831,15.267 l 0,0 c 0,10.468 -7.034,15.267 -14.831,15.267 l 0,0 c -7.796,0 -14.831,-4.799 -14.831,-15.267 m 7.852,0 c 0,3.707 1.091,8.834 6.979,8.834 l 0,0 c 5.889,0 6.979,-5.127 6.979,-8.834 l 0,0 c 0,-3.707 -1.09,-8.832 -6.979,-8.832 l 0,0 c -5.888,0 -6.979,5.125 -6.979,8.832"
               inkscape:connector-curvature="0" /></g></g></g></g><g
       id="g122"><g
         id="g124"><g
           id="g130"><g
             id="g132"><path
               id="path142"
               style="fill:url(#linearGradient134);stroke:none"
               d="m 209.415,130.083 7.634,0 0,7.088 -7.634,0 0,-7.088 z m 0,-32.443 7.634,0 0,29.008 -7.634,0 0,-29.008 z"
               inkscape:connector-curvature="0" /></g></g></g></g><g
       id="g144"><g
         id="g146"><g
           id="g152"><g
             id="g154"><path
               id="path164"
               style="fill:url(#linearGradient156);stroke:none"
               d="m 228.425,122.396 -0.109,0 0,4.252 -7.307,0 0,-29.008 7.634,0 0,16.631 c 0,4.416 2.617,6.707 5.998,6.707 l 0,0 c 4.853,0 4.962,-3.6 4.962,-5.727 l 0,0 0,-17.611 7.633,0 0,20.066 c 0,6.38 -4.416,9.705 -10.087,9.705 l 0,0 c -5.507,0 -7.688,-3.271 -8.724,-5.015"
               inkscape:connector-curvature="0" /></g></g></g></g><g
       id="g166"><g
         id="g168"><g
           id="g174"><g
             id="g176"><path
               id="path186"
               style="fill:url(#linearGradient178);stroke:none"
               d="m 249.58,112.744 c 0,-11.942 6.27,-15.867 14.449,-15.867 l 0,0 c 4.961,0 10.742,2.29 12.759,9.269 l 0,0 -7.852,0 c -0.599,-2.07 -2.781,-3.162 -4.907,-3.162 l 0,0 c -6.161,0 -6.598,4.908 -6.816,7.088 l 0,0 19.902,0 0,1.363 c 0,13.25 -7.906,15.976 -13.631,15.976 l 0,0 c -12.704,0 -13.904,-11.177 -13.904,-14.667 m 13.795,8.396 c 2.453,0 5.452,-1.416 5.889,-6.106 l 0,0 -11.833,0 c 0.437,3.817 2.345,6.106 5.944,6.106"
               inkscape:connector-curvature="0" /></g></g></g></g><g
       id="g188"><g
         id="g190"><g
           id="g196"><g
             id="g198"><path
               id="path208"
               style="fill:url(#linearGradient200);stroke:none"
               d="m 299.96,136.79 0,-13.904 -0.109,0 c -1.2,1.854 -3.49,4.525 -8.397,4.525 l 0,0 c -6.38,0 -12.05,-4.907 -12.05,-14.939 l 0,0 c 0,-7.96 3.599,-15.595 12.214,-15.595 l 0,0 c 3.163,0 6.542,1.146 8.397,4.417 l 0,0 0.109,0 0,-3.654 7.829,0 0,39.15 -7.993,0 z m -12.704,-24.862 c 0,4.577 1.636,8.886 6.488,8.886 l 0,0 c 5.234,0 6.543,-4.69 6.543,-9.325 l 0,0 c 0,-4.306 -1.908,-8.341 -6.761,-8.341 l 0,0 c -4.907,0 -6.27,5.343 -6.27,8.78"
               inkscape:connector-curvature="0" /></g></g></g></g></g></svg>